<svg xmlns="http://www.w3.org/2000/svg" xmlns:xlink="http://www.w3.org/1999/xlink" width="553" zoomAndPan="magnify" viewBox="0 0 414.75 207.75" height="277" preserveAspectRatio="xMidYMid meet" version="1.0"><defs><g/></defs><g fill="#000000" fill-opacity="1"><g transform="translate(336.258583, 121.075823)"><g><path d="M 11.640625 -4.4375 C 11.535156 -3 11.003906 -1.867188 10.046875 -1.046875 C 9.097656 -0.222656 7.84375 0.1875 6.28125 0.1875 C 4.570312 0.1875 3.226562 -0.382812 2.25 -1.53125 C 1.269531 -2.6875 0.78125 -4.265625 0.78125 -6.265625 L 0.78125 -7.078125 C 0.78125 -8.359375 1.003906 -9.484375 1.453125 -10.453125 C 1.910156 -11.429688 2.554688 -12.179688 3.390625 -12.703125 C 4.234375 -13.222656 5.207031 -13.484375 6.3125 -13.484375 C 7.851562 -13.484375 9.09375 -13.070312 10.03125 -12.25 C 10.96875 -11.425781 11.507812 -10.273438 11.65625 -8.796875 L 8.90625 -8.796875 C 8.84375 -9.648438 8.601562 -10.269531 8.1875 -10.65625 C 7.78125 -11.050781 7.15625 -11.25 6.3125 -11.25 C 5.394531 -11.25 4.707031 -10.921875 4.25 -10.265625 C 3.800781 -9.609375 3.570312 -8.59375 3.5625 -7.21875 L 3.5625 -6.203125 C 3.5625 -4.765625 3.78125 -3.710938 4.21875 -3.046875 C 4.65625 -2.390625 5.34375 -2.0625 6.28125 -2.0625 C 7.125 -2.0625 7.753906 -2.253906 8.171875 -2.640625 C 8.585938 -3.023438 8.828125 -3.625 8.890625 -4.4375 Z M 11.640625 -4.4375 "/></g></g></g><g fill="#000000" fill-opacity="1"><g transform="translate(348.502789, 121.075823)"><g><path d="M 12.015625 0 L 9.28125 0 L 9.28125 -5.703125 L 3.9375 -5.703125 L 3.9375 0 L 1.1875 0 L 1.1875 -13.3125 L 3.9375 -13.3125 L 3.9375 -7.921875 L 9.28125 -7.921875 L 9.28125 -13.3125 L 12.015625 -13.3125 Z M 12.015625 0 "/></g></g></g><g fill="#000000" fill-opacity="1"><g transform="translate(361.155464, 127.187733)"><g><path d="M 9.078125 0 L 0.8125 0 L 0.8125 -1.640625 L 4.71875 -5.796875 C 5.25 -6.378906 5.644531 -6.890625 5.90625 -7.328125 C 6.164062 -7.765625 6.296875 -8.175781 6.296875 -8.5625 C 6.296875 -9.101562 6.160156 -9.523438 5.890625 -9.828125 C 5.617188 -10.140625 5.234375 -10.296875 4.734375 -10.296875 C 4.191406 -10.296875 3.765625 -10.109375 3.453125 -9.734375 C 3.140625 -9.359375 2.984375 -8.867188 2.984375 -8.265625 L 0.578125 -8.265625 C 0.578125 -8.992188 0.75 -9.660156 1.09375 -10.265625 C 1.445312 -10.878906 1.941406 -11.359375 2.578125 -11.703125 C 3.222656 -12.046875 3.953125 -12.21875 4.765625 -12.21875 C 6.003906 -12.21875 6.96875 -11.921875 7.65625 -11.328125 C 8.34375 -10.734375 8.6875 -9.890625 8.6875 -8.796875 C 8.6875 -8.203125 8.53125 -7.59375 8.21875 -6.96875 C 7.914062 -6.351562 7.390625 -5.632812 6.640625 -4.8125 L 3.90625 -1.921875 L 9.078125 -1.921875 Z M 9.078125 0 "/></g></g></g><g fill="#000000" fill-opacity="1"><g transform="translate(348.643477, 141.106843)"><g><path d="M 3.1875 2.46875 L 1.578125 2.46875 L 1.578125 -13.3125 L 3.1875 -13.3125 Z M 3.1875 2.46875 "/></g></g></g><g fill="#000000" fill-opacity="1"><g transform="translate(344.403813, 158.722589)"><g><path d="M 12.015625 0 L 9.265625 0 L 3.9375 -8.75 L 3.9375 0 L 1.1875 0 L 1.1875 -13.3125 L 3.9375 -13.3125 L 9.28125 -4.53125 L 9.28125 -13.3125 L 12.015625 -13.3125 Z M 12.015625 0 "/></g></g></g><g fill="#000000" fill-opacity="1"><g transform="translate(348.643477, 177.070953)"><g><path d="M 3.1875 2.46875 L 1.578125 2.46875 L 1.578125 -13.3125 L 3.1875 -13.3125 Z M 3.1875 2.46875 "/></g></g></g><g fill="#000000" fill-opacity="1"><g transform="translate(368.206896, 160.502026)"><g><path d="M 3.734375 -1.53125 L 2.9375 -0.125 L -10.734375 -8.015625 L -9.9375 -9.421875 Z M 3.734375 -1.53125 "/></g></g></g><g fill="#000000" fill-opacity="1"><g transform="translate(330.374556, 157.264368)"><g><path d="M -0.0625 4.03125 L -1.015625 2.75 L 11.609375 -6.71875 L 12.5625 -5.4375 Z M -0.0625 4.03125 "/></g></g></g><g fill="#000000" fill-opacity="1"><g transform="translate(369.028249, 174.136462)"><g><path d="M 11.640625 -4.4375 C 11.535156 -3 11.003906 -1.867188 10.046875 -1.046875 C 9.097656 -0.222656 7.84375 0.1875 6.28125 0.1875 C 4.570312 0.1875 3.226562 -0.382812 2.25 -1.53125 C 1.269531 -2.6875 0.78125 -4.265625 0.78125 -6.265625 L 0.78125 -7.078125 C 0.78125 -8.359375 1.003906 -9.484375 1.453125 -10.453125 C 1.910156 -11.429688 2.554688 -12.179688 3.390625 -12.703125 C 4.234375 -13.222656 5.207031 -13.484375 6.3125 -13.484375 C 7.851562 -13.484375 9.09375 -13.070312 10.03125 -12.25 C 10.96875 -11.425781 11.507812 -10.273438 11.65625 -8.796875 L 8.90625 -8.796875 C 8.84375 -9.648438 8.601562 -10.269531 8.1875 -10.65625 C 7.78125 -11.050781 7.15625 -11.25 6.3125 -11.25 C 5.394531 -11.25 4.707031 -10.921875 4.25 -10.265625 C 3.800781 -9.609375 3.570312 -8.59375 3.5625 -7.21875 L 3.5625 -6.203125 C 3.5625 -4.765625 3.78125 -3.710938 4.21875 -3.046875 C 4.65625 -2.390625 5.34375 -2.0625 6.28125 -2.0625 C 7.125 -2.0625 7.753906 -2.253906 8.171875 -2.640625 C 8.585938 -3.023438 8.828125 -3.625 8.890625 -4.4375 Z M 11.640625 -4.4375 "/></g></g></g><g fill="#000000" fill-opacity="1"><g transform="translate(381.272456, 174.136462)"><g><path d="M 12.015625 0 L 9.28125 0 L 9.28125 -5.703125 L 3.9375 -5.703125 L 3.9375 0 L 1.1875 0 L 1.1875 -13.3125 L 3.9375 -13.3125 L 3.9375 -7.921875 L 9.28125 -7.921875 L 9.28125 -13.3125 L 12.015625 -13.3125 Z M 12.015625 0 "/></g></g></g><g fill="#000000" fill-opacity="1"><g transform="translate(393.925187, 180.248364)"><g><path d="M 3.25 -7.078125 L 4.53125 -7.078125 C 5.132812 -7.078125 5.582031 -7.226562 5.875 -7.53125 C 6.164062 -7.84375 6.3125 -8.25 6.3125 -8.75 C 6.3125 -9.238281 6.164062 -9.617188 5.875 -9.890625 C 5.59375 -10.160156 5.195312 -10.296875 4.6875 -10.296875 C 4.226562 -10.296875 3.84375 -10.164062 3.53125 -9.90625 C 3.226562 -9.65625 3.078125 -9.332031 3.078125 -8.9375 L 0.671875 -8.9375 C 0.671875 -9.5625 0.84375 -10.125 1.1875 -10.625 C 1.53125 -11.125 2.003906 -11.515625 2.609375 -11.796875 C 3.222656 -12.078125 3.894531 -12.21875 4.625 -12.21875 C 5.90625 -12.21875 6.90625 -11.910156 7.625 -11.296875 C 8.34375 -10.691406 8.703125 -9.851562 8.703125 -8.78125 C 8.703125 -8.226562 8.535156 -7.71875 8.203125 -7.25 C 7.867188 -6.789062 7.425781 -6.4375 6.875 -6.1875 C 7.550781 -5.945312 8.054688 -5.582031 8.390625 -5.09375 C 8.734375 -4.613281 8.90625 -4.039062 8.90625 -3.375 C 8.90625 -2.300781 8.515625 -1.441406 7.734375 -0.796875 C 6.953125 -0.148438 5.914062 0.171875 4.625 0.171875 C 3.425781 0.171875 2.441406 -0.144531 1.671875 -0.78125 C 0.910156 -1.414062 0.53125 -2.253906 0.53125 -3.296875 L 2.921875 -3.296875 C 2.921875 -2.847656 3.085938 -2.476562 3.421875 -2.1875 C 3.765625 -1.90625 4.1875 -1.765625 4.6875 -1.765625 C 5.25 -1.765625 5.691406 -1.914062 6.015625 -2.21875 C 6.335938 -2.519531 6.5 -2.914062 6.5 -3.40625 C 6.5 -4.613281 5.835938 -5.21875 4.515625 -5.21875 L 3.25 -5.21875 Z M 3.25 -7.078125 "/></g></g></g><g fill="#000000" fill-opacity="1"><g transform="translate(334.174624, 197.245478)"><g><path d="M 11.640625 -4.4375 C 11.535156 -3 11.003906 -1.867188 10.046875 -1.046875 C 9.097656 -0.222656 7.84375 0.1875 6.28125 0.1875 C 4.570312 0.1875 3.226562 -0.382812 2.25 -1.53125 C 1.269531 -2.6875 0.78125 -4.265625 0.78125 -6.265625 L 0.78125 -7.078125 C 0.78125 -8.359375 1.003906 -9.484375 1.453125 -10.453125 C 1.910156 -11.429688 2.554688 -12.179688 3.390625 -12.703125 C 4.234375 -13.222656 5.207031 -13.484375 6.3125 -13.484375 C 7.851562 -13.484375 9.09375 -13.070312 10.03125 -12.25 C 10.96875 -11.425781 11.507812 -10.273438 11.65625 -8.796875 L 8.90625 -8.796875 C 8.84375 -9.648438 8.601562 -10.269531 8.1875 -10.65625 C 7.78125 -11.050781 7.15625 -11.25 6.3125 -11.25 C 5.394531 -11.25 4.707031 -10.921875 4.25 -10.265625 C 3.800781 -9.609375 3.570312 -8.59375 3.5625 -7.21875 L 3.5625 -6.203125 C 3.5625 -4.765625 3.78125 -3.710938 4.21875 -3.046875 C 4.65625 -2.390625 5.34375 -2.0625 6.28125 -2.0625 C 7.125 -2.0625 7.753906 -2.253906 8.171875 -2.640625 C 8.585938 -3.023438 8.828125 -3.625 8.890625 -4.4375 Z M 11.640625 -4.4375 "/></g></g></g><g fill="#000000" fill-opacity="1"><g transform="translate(346.418831, 197.245478)"><g><path d="M 12.015625 0 L 9.28125 0 L 9.28125 -5.703125 L 3.9375 -5.703125 L 3.9375 0 L 1.1875 0 L 1.1875 -13.3125 L 3.9375 -13.3125 L 3.9375 -7.921875 L 9.28125 -7.921875 L 9.28125 -13.3125 L 12.015625 -13.3125 Z M 12.015625 0 "/></g></g></g><g fill="#000000" fill-opacity="1"><g transform="translate(359.071505, 203.357395)"><g><path d="M 3.25 -7.078125 L 4.53125 -7.078125 C 5.132812 -7.078125 5.582031 -7.226562 5.875 -7.53125 C 6.164062 -7.84375 6.3125 -8.25 6.3125 -8.75 C 6.3125 -9.238281 6.164062 -9.617188 5.875 -9.890625 C 5.59375 -10.160156 5.195312 -10.296875 4.6875 -10.296875 C 4.226562 -10.296875 3.84375 -10.164062 3.53125 -9.90625 C 3.226562 -9.65625 3.078125 -9.332031 3.078125 -8.9375 L 0.671875 -8.9375 C 0.671875 -9.5625 0.84375 -10.125 1.1875 -10.625 C 1.53125 -11.125 2.003906 -11.515625 2.609375 -11.796875 C 3.222656 -12.078125 3.894531 -12.21875 4.625 -12.21875 C 5.90625 -12.21875 6.90625 -11.910156 7.625 -11.296875 C 8.34375 -10.691406 8.703125 -9.851562 8.703125 -8.78125 C 8.703125 -8.226562 8.535156 -7.71875 8.203125 -7.25 C 7.867188 -6.789062 7.425781 -6.4375 6.875 -6.1875 C 7.550781 -5.945312 8.054688 -5.582031 8.390625 -5.09375 C 8.734375 -4.613281 8.90625 -4.039062 8.90625 -3.375 C 8.90625 -2.300781 8.515625 -1.441406 7.734375 -0.796875 C 6.953125 -0.148438 5.914062 0.171875 4.625 0.171875 C 3.425781 0.171875 2.441406 -0.144531 1.671875 -0.78125 C 0.910156 -1.414062 0.53125 -2.253906 0.53125 -3.296875 L 2.921875 -3.296875 C 2.921875 -2.847656 3.085938 -2.476562 3.421875 -2.1875 C 3.765625 -1.90625 4.1875 -1.765625 4.6875 -1.765625 C 5.25 -1.765625 5.691406 -1.914062 6.015625 -2.21875 C 6.335938 -2.519531 6.5 -2.914062 6.5 -3.40625 C 6.5 -4.613281 5.835938 -5.21875 4.515625 -5.21875 L 3.25 -5.21875 Z M 3.25 -7.078125 "/></g></g></g><g fill="#000000" fill-opacity="1"><g transform="translate(303.398672, 174.136462)"><g><path d="M 11.640625 -4.4375 C 11.535156 -3 11.003906 -1.867188 10.046875 -1.046875 C 9.097656 -0.222656 7.84375 0.1875 6.28125 0.1875 C 4.570312 0.1875 3.226562 -0.382812 2.25 -1.53125 C 1.269531 -2.6875 0.78125 -4.265625 0.78125 -6.265625 L 0.78125 -7.078125 C 0.78125 -8.359375 1.003906 -9.484375 1.453125 -10.453125 C 1.910156 -11.429688 2.554688 -12.179688 3.390625 -12.703125 C 4.234375 -13.222656 5.207031 -13.484375 6.3125 -13.484375 C 7.851562 -13.484375 9.09375 -13.070312 10.03125 -12.25 C 10.96875 -11.425781 11.507812 -10.273438 11.65625 -8.796875 L 8.90625 -8.796875 C 8.84375 -9.648438 8.601562 -10.269531 8.1875 -10.65625 C 7.78125 -11.050781 7.15625 -11.25 6.3125 -11.25 C 5.394531 -11.25 4.707031 -10.921875 4.25 -10.265625 C 3.800781 -9.609375 3.570312 -8.59375 3.5625 -7.21875 L 3.5625 -6.203125 C 3.5625 -4.765625 3.78125 -3.710938 4.21875 -3.046875 C 4.65625 -2.390625 5.34375 -2.0625 6.28125 -2.0625 C 7.125 -2.0625 7.753906 -2.253906 8.171875 -2.640625 C 8.585938 -3.023438 8.828125 -3.625 8.890625 -4.4375 Z M 11.640625 -4.4375 "/></g></g></g><g fill="#000000" fill-opacity="1"><g transform="translate(315.642879, 174.136462)"><g><path d="M 12.015625 0 L 9.28125 0 L 9.28125 -5.703125 L 3.9375 -5.703125 L 3.9375 0 L 1.1875 0 L 1.1875 -13.3125 L 3.9375 -13.3125 L 3.9375 -7.921875 L 9.28125 -7.921875 L 9.28125 -13.3125 L 12.015625 -13.3125 Z M 12.015625 0 "/></g></g></g><g fill="#000000" fill-opacity="1"><g transform="translate(328.295613, 180.248364)"><g><path d="M 3.25 -7.078125 L 4.53125 -7.078125 C 5.132812 -7.078125 5.582031 -7.226562 5.875 -7.53125 C 6.164062 -7.84375 6.3125 -8.25 6.3125 -8.75 C 6.3125 -9.238281 6.164062 -9.617188 5.875 -9.890625 C 5.59375 -10.160156 5.195312 -10.296875 4.6875 -10.296875 C 4.226562 -10.296875 3.84375 -10.164062 3.53125 -9.90625 C 3.226562 -9.65625 3.078125 -9.332031 3.078125 -8.9375 L 0.671875 -8.9375 C 0.671875 -9.5625 0.84375 -10.125 1.1875 -10.625 C 1.53125 -11.125 2.003906 -11.515625 2.609375 -11.796875 C 3.222656 -12.078125 3.894531 -12.21875 4.625 -12.21875 C 5.90625 -12.21875 6.90625 -11.910156 7.625 -11.296875 C 8.34375 -10.691406 8.703125 -9.851562 8.703125 -8.78125 C 8.703125 -8.226562 8.535156 -7.71875 8.203125 -7.25 C 7.867188 -6.789062 7.425781 -6.4375 6.875 -6.1875 C 7.550781 -5.945312 8.054688 -5.582031 8.390625 -5.09375 C 8.734375 -4.613281 8.90625 -4.039062 8.90625 -3.375 C 8.90625 -2.300781 8.515625 -1.441406 7.734375 -0.796875 C 6.953125 -0.148438 5.914062 0.171875 4.625 0.171875 C 3.425781 0.171875 2.441406 -0.144531 1.671875 -0.78125 C 0.910156 -1.414062 0.53125 -2.253906 0.53125 -3.296875 L 2.921875 -3.296875 C 2.921875 -2.847656 3.085938 -2.476562 3.421875 -2.1875 C 3.765625 -1.90625 4.1875 -1.765625 4.6875 -1.765625 C 5.25 -1.765625 5.691406 -1.914062 6.015625 -2.21875 C 6.335938 -2.519531 6.5 -2.914062 6.5 -3.40625 C 6.5 -4.613281 5.835938 -5.21875 4.515625 -5.21875 L 3.25 -5.21875 Z M 3.25 -7.078125 "/></g></g></g><g fill="#000000" fill-opacity="1"><g transform="translate(318.606477, 112.374951)"><g><path d="M -2.46875 3.1875 L -2.46875 1.578125 L 13.3125 1.578125 L 13.3125 3.1875 Z M -2.46875 3.1875 "/></g></g></g><g fill="#000000" fill-opacity="1"><g transform="translate(280.296737, 121.075823)"><g><path d="M 11.640625 -4.4375 C 11.535156 -3 11.003906 -1.867188 10.046875 -1.046875 C 9.097656 -0.222656 7.84375 0.1875 6.28125 0.1875 C 4.570312 0.1875 3.226562 -0.382812 2.25 -1.53125 C 1.269531 -2.6875 0.78125 -4.265625 0.78125 -6.265625 L 0.78125 -7.078125 C 0.78125 -8.359375 1.003906 -9.484375 1.453125 -10.453125 C 1.910156 -11.429688 2.554688 -12.179688 3.390625 -12.703125 C 4.234375 -13.222656 5.207031 -13.484375 6.3125 -13.484375 C 7.851562 -13.484375 9.09375 -13.070312 10.03125 -12.25 C 10.96875 -11.425781 11.507812 -10.273438 11.65625 -8.796875 L 8.90625 -8.796875 C 8.84375 -9.648438 8.601562 -10.269531 8.1875 -10.65625 C 7.78125 -11.050781 7.15625 -11.25 6.3125 -11.25 C 5.394531 -11.25 4.707031 -10.921875 4.25 -10.265625 C 3.800781 -9.609375 3.570312 -8.59375 3.5625 -7.21875 L 3.5625 -6.203125 C 3.5625 -4.765625 3.78125 -3.710938 4.21875 -3.046875 C 4.65625 -2.390625 5.34375 -2.0625 6.28125 -2.0625 C 7.125 -2.0625 7.753906 -2.253906 8.171875 -2.640625 C 8.585938 -3.023438 8.828125 -3.625 8.890625 -4.4375 Z M 11.640625 -4.4375 "/></g></g></g><g fill="#000000" fill-opacity="1"><g transform="translate(292.540944, 121.075823)"><g><path d="M 12.015625 0 L 9.28125 0 L 9.28125 -5.703125 L 3.9375 -5.703125 L 3.9375 0 L 1.1875 0 L 1.1875 -13.3125 L 3.9375 -13.3125 L 3.9375 -7.921875 L 9.28125 -7.921875 L 9.28125 -13.3125 L 12.015625 -13.3125 Z M 12.015625 0 "/></g></g></g><g fill="#000000" fill-opacity="1"><g transform="translate(305.193647, 127.187733)"><g><path d="M 9.078125 0 L 0.8125 0 L 0.8125 -1.640625 L 4.71875 -5.796875 C 5.25 -6.378906 5.644531 -6.890625 5.90625 -7.328125 C 6.164062 -7.765625 6.296875 -8.175781 6.296875 -8.5625 C 6.296875 -9.101562 6.160156 -9.523438 5.890625 -9.828125 C 5.617188 -10.140625 5.234375 -10.296875 4.734375 -10.296875 C 4.191406 -10.296875 3.765625 -10.109375 3.453125 -9.734375 C 3.140625 -9.359375 2.984375 -8.867188 2.984375 -8.265625 L 0.578125 -8.265625 C 0.578125 -8.992188 0.75 -9.660156 1.09375 -10.265625 C 1.445312 -10.878906 1.941406 -11.359375 2.578125 -11.703125 C 3.222656 -12.046875 3.953125 -12.21875 4.765625 -12.21875 C 6.003906 -12.21875 6.96875 -11.921875 7.65625 -11.328125 C 8.34375 -10.734375 8.6875 -9.890625 8.6875 -8.796875 C 8.6875 -8.203125 8.53125 -7.59375 8.21875 -6.96875 C 7.914062 -6.351562 7.390625 -5.632812 6.640625 -4.8125 L 3.90625 -1.921875 L 9.078125 -1.921875 Z M 9.078125 0 "/></g></g></g><g fill="#000000" fill-opacity="1"><g transform="translate(262.765161, 112.374951)"><g><path d="M -2.46875 3.1875 L -2.46875 1.578125 L 13.3125 1.578125 L 13.3125 3.1875 Z M -2.46875 3.1875 "/></g></g></g><g fill="#000000" fill-opacity="1"><g transform="translate(246.366643, 121.666449)"><g><path d="M 12.125 -6.359375 C 12.125 -5.046875 11.890625 -3.894531 11.421875 -2.90625 C 10.960938 -1.914062 10.300781 -1.148438 9.4375 -0.609375 C 8.570312 -0.078125 7.582031 0.1875 6.46875 0.1875 C 5.363281 0.1875 4.378906 -0.078125 3.515625 -0.609375 C 2.648438 -1.140625 1.976562 -1.894531 1.5 -2.875 C 1.03125 -3.863281 0.789062 -5 0.78125 -6.28125 L 0.78125 -6.9375 C 0.78125 -8.25 1.015625 -9.398438 1.484375 -10.390625 C 1.960938 -11.390625 2.632812 -12.15625 3.5 -12.6875 C 4.363281 -13.21875 5.347656 -13.484375 6.453125 -13.484375 C 7.554688 -13.484375 8.539062 -13.21875 9.40625 -12.6875 C 10.269531 -12.15625 10.9375 -11.390625 11.40625 -10.390625 C 11.882812 -9.398438 12.125 -8.253906 12.125 -6.953125 Z M 9.34375 -6.953125 C 9.34375 -8.347656 9.09375 -9.40625 8.59375 -10.125 C 8.09375 -10.851562 7.378906 -11.21875 6.453125 -11.21875 C 5.535156 -11.21875 4.828125 -10.859375 4.328125 -10.140625 C 3.828125 -9.429688 3.570312 -8.382812 3.5625 -7 L 3.5625 -6.359375 C 3.5625 -4.992188 3.8125 -3.9375 4.3125 -3.1875 C 4.8125 -2.4375 5.53125 -2.0625 6.46875 -2.0625 C 7.382812 -2.0625 8.085938 -2.421875 8.578125 -3.140625 C 9.078125 -3.867188 9.332031 -4.925781 9.34375 -6.3125 Z M 9.34375 -6.953125 "/></g></g></g><g fill="#000000" fill-opacity="1"><g transform="translate(228.635326, 112.361206)"><g><path d="M -2.46875 3.1875 L -2.46875 1.578125 L 13.3125 1.578125 L 13.3125 3.1875 Z M -2.46875 3.1875 "/></g></g></g><g fill="#000000" fill-opacity="1"><g transform="translate(212.367697, 121.666449)"><g><path d="M 3.9375 -4.6875 L 3.9375 0 L 1.1875 0 L 1.1875 -13.3125 L 6.375 -13.3125 C 7.375 -13.3125 8.253906 -13.128906 9.015625 -12.765625 C 9.773438 -12.398438 10.359375 -11.878906 10.765625 -11.203125 C 11.171875 -10.523438 11.375 -9.757812 11.375 -8.90625 C 11.375 -7.601562 10.925781 -6.570312 10.03125 -5.8125 C 9.144531 -5.0625 7.910156 -4.6875 6.328125 -4.6875 Z M 3.9375 -6.90625 L 6.375 -6.90625 C 7.101562 -6.90625 7.65625 -7.078125 8.03125 -7.421875 C 8.414062 -7.765625 8.609375 -8.253906 8.609375 -8.890625 C 8.609375 -9.535156 8.414062 -10.054688 8.03125 -10.453125 C 7.644531 -10.859375 7.113281 -11.070312 6.4375 -11.09375 L 3.9375 -11.09375 Z M 3.9375 -6.90625 "/></g></g></g><g fill="#000000" fill-opacity="1"><g transform="translate(212.897168, 139.363718)"><g><path d="M 3.1875 2.46875 L 1.578125 2.46875 L 1.578125 -13.3125 L 3.1875 -13.3125 Z M 3.1875 2.46875 "/></g></g></g><g fill="#000000" fill-opacity="1"><g transform="translate(208.982178, 159.538257)"><g><path d="M 12.125 -6.359375 C 12.125 -5.046875 11.890625 -3.894531 11.421875 -2.90625 C 10.960938 -1.914062 10.300781 -1.148438 9.4375 -0.609375 C 8.570312 -0.078125 7.582031 0.1875 6.46875 0.1875 C 5.363281 0.1875 4.378906 -0.078125 3.515625 -0.609375 C 2.648438 -1.140625 1.976562 -1.894531 1.5 -2.875 C 1.03125 -3.863281 0.789062 -5 0.78125 -6.28125 L 0.78125 -6.9375 C 0.78125 -8.25 1.015625 -9.398438 1.484375 -10.390625 C 1.960938 -11.390625 2.632812 -12.15625 3.5 -12.6875 C 4.363281 -13.21875 5.347656 -13.484375 6.453125 -13.484375 C 7.554688 -13.484375 8.539062 -13.21875 9.40625 -12.6875 C 10.269531 -12.15625 10.9375 -11.390625 11.40625 -10.390625 C 11.882812 -9.398438 12.125 -8.253906 12.125 -6.953125 Z M 9.34375 -6.953125 C 9.34375 -8.347656 9.09375 -9.40625 8.59375 -10.125 C 8.09375 -10.851562 7.378906 -11.21875 6.453125 -11.21875 C 5.535156 -11.21875 4.828125 -10.859375 4.328125 -10.140625 C 3.828125 -9.429688 3.570312 -8.382812 3.5625 -7 L 3.5625 -6.359375 C 3.5625 -4.992188 3.8125 -3.9375 4.3125 -3.1875 C 4.8125 -2.4375 5.53125 -2.0625 6.46875 -2.0625 C 7.382812 -2.0625 8.085938 -2.421875 8.578125 -3.140625 C 9.078125 -3.867188 9.332031 -4.925781 9.34375 -6.3125 Z M 9.34375 -6.953125 "/></g></g></g><g fill="#000000" fill-opacity="1"><g transform="translate(221.902557, 159.538257)"><g><path d="M 12.015625 0 L 9.28125 0 L 9.28125 -5.703125 L 3.9375 -5.703125 L 3.9375 0 L 1.1875 0 L 1.1875 -13.3125 L 3.9375 -13.3125 L 3.9375 -7.921875 L 9.28125 -7.921875 L 9.28125 -13.3125 L 12.015625 -13.3125 Z M 12.015625 0 "/></g></g></g><g fill="#000000" fill-opacity="1"><g transform="translate(223.489134, 105.149709)"><g><path d="M -6.8125 -9.421875 L -6.8125 -1.25 L -8.96875 -1.25 L -8.96875 -9.421875 Z M -2.859375 -9.421875 L -2.859375 -1.25 L -5.015625 -1.25 L -5.015625 -9.421875 Z M -2.859375 -9.421875 "/></g></g></g><g fill="#000000" fill-opacity="1"><g transform="translate(210.097749, 92.236949)"><g><path d="M 12.125 -6.359375 C 12.125 -5.046875 11.890625 -3.894531 11.421875 -2.90625 C 10.960938 -1.914062 10.300781 -1.148438 9.4375 -0.609375 C 8.570312 -0.078125 7.582031 0.1875 6.46875 0.1875 C 5.363281 0.1875 4.378906 -0.078125 3.515625 -0.609375 C 2.648438 -1.140625 1.976562 -1.894531 1.5 -2.875 C 1.03125 -3.863281 0.789062 -5 0.78125 -6.28125 L 0.78125 -6.9375 C 0.78125 -8.25 1.015625 -9.398438 1.484375 -10.390625 C 1.960938 -11.390625 2.632812 -12.15625 3.5 -12.6875 C 4.363281 -13.21875 5.347656 -13.484375 6.453125 -13.484375 C 7.554688 -13.484375 8.539062 -13.21875 9.40625 -12.6875 C 10.269531 -12.15625 10.9375 -11.390625 11.40625 -10.390625 C 11.882812 -9.398438 12.125 -8.253906 12.125 -6.953125 Z M 9.34375 -6.953125 C 9.34375 -8.347656 9.09375 -9.40625 8.59375 -10.125 C 8.09375 -10.851562 7.378906 -11.21875 6.453125 -11.21875 C 5.535156 -11.21875 4.828125 -10.859375 4.328125 -10.140625 C 3.828125 -9.429688 3.570312 -8.382812 3.5625 -7 L 3.5625 -6.359375 C 3.5625 -4.992188 3.8125 -3.9375 4.3125 -3.1875 C 4.8125 -2.4375 5.53125 -2.0625 6.46875 -2.0625 C 7.382812 -2.0625 8.085938 -2.421875 8.578125 -3.140625 C 9.078125 -3.867188 9.332031 -4.925781 9.34375 -6.3125 Z M 9.34375 -6.953125 "/></g></g></g><g fill="#000000" fill-opacity="1"><g transform="translate(194.282003, 112.361206)"><g><path d="M -2.46875 3.1875 L -2.46875 1.578125 L 13.3125 1.578125 L 13.3125 3.1875 Z M -2.46875 3.1875 "/></g></g></g><g fill="#000000" fill-opacity="1"><g transform="translate(177.402204, 121.652701)"><g><path d="M 12.125 -6.359375 C 12.125 -5.046875 11.890625 -3.894531 11.421875 -2.90625 C 10.960938 -1.914062 10.300781 -1.148438 9.4375 -0.609375 C 8.570312 -0.078125 7.582031 0.1875 6.46875 0.1875 C 5.363281 0.1875 4.378906 -0.078125 3.515625 -0.609375 C 2.648438 -1.140625 1.976562 -1.894531 1.5 -2.875 C 1.03125 -3.863281 0.789062 -5 0.78125 -6.28125 L 0.78125 -6.9375 C 0.78125 -8.25 1.015625 -9.398438 1.484375 -10.390625 C 1.960938 -11.390625 2.632812 -12.15625 3.5 -12.6875 C 4.363281 -13.21875 5.347656 -13.484375 6.453125 -13.484375 C 7.554688 -13.484375 8.539062 -13.21875 9.40625 -12.6875 C 10.269531 -12.15625 10.9375 -11.390625 11.40625 -10.390625 C 11.882812 -9.398438 12.125 -8.253906 12.125 -6.953125 Z M 9.34375 -6.953125 C 9.34375 -8.347656 9.09375 -9.40625 8.59375 -10.125 C 8.09375 -10.851562 7.378906 -11.21875 6.453125 -11.21875 C 5.535156 -11.21875 4.828125 -10.859375 4.328125 -10.140625 C 3.828125 -9.429688 3.570312 -8.382812 3.5625 -7 L 3.5625 -6.359375 C 3.5625 -4.992188 3.8125 -3.9375 4.3125 -3.1875 C 4.8125 -2.4375 5.53125 -2.0625 6.46875 -2.0625 C 7.382812 -2.0625 8.085938 -2.421875 8.578125 -3.140625 C 9.078125 -3.867188 9.332031 -4.925781 9.34375 -6.3125 Z M 9.34375 -6.953125 "/></g></g></g><g fill="#000000" fill-opacity="1"><g transform="translate(160.240905, 112.361206)"><g><path d="M -2.46875 3.1875 L -2.46875 1.578125 L 13.3125 1.578125 L 13.3125 3.1875 Z M -2.46875 3.1875 "/></g></g></g><g fill="#000000" fill-opacity="1"><g transform="translate(120.649123, 118.71822)"><g><path d="M 11.640625 -4.4375 C 11.535156 -3 11.003906 -1.867188 10.046875 -1.046875 C 9.097656 -0.222656 7.84375 0.1875 6.28125 0.1875 C 4.570312 0.1875 3.226562 -0.382812 2.25 -1.53125 C 1.269531 -2.6875 0.78125 -4.265625 0.78125 -6.265625 L 0.78125 -7.078125 C 0.78125 -8.359375 1.003906 -9.484375 1.453125 -10.453125 C 1.910156 -11.429688 2.554688 -12.179688 3.390625 -12.703125 C 4.234375 -13.222656 5.207031 -13.484375 6.3125 -13.484375 C 7.851562 -13.484375 9.09375 -13.070312 10.03125 -12.25 C 10.96875 -11.425781 11.507812 -10.273438 11.65625 -8.796875 L 8.90625 -8.796875 C 8.84375 -9.648438 8.601562 -10.269531 8.1875 -10.65625 C 7.78125 -11.050781 7.15625 -11.25 6.3125 -11.25 C 5.394531 -11.25 4.707031 -10.921875 4.25 -10.265625 C 3.800781 -9.609375 3.570312 -8.59375 3.5625 -7.21875 L 3.5625 -6.203125 C 3.5625 -4.765625 3.78125 -3.710938 4.21875 -3.046875 C 4.65625 -2.390625 5.34375 -2.0625 6.28125 -2.0625 C 7.125 -2.0625 7.753906 -2.253906 8.171875 -2.640625 C 8.585938 -3.023438 8.828125 -3.625 8.890625 -4.4375 Z M 11.640625 -4.4375 "/></g></g></g><g fill="#000000" fill-opacity="1"><g transform="translate(132.893329, 118.71822)"><g><path d="M 12.015625 0 L 9.28125 0 L 9.28125 -5.703125 L 3.9375 -5.703125 L 3.9375 0 L 1.1875 0 L 1.1875 -13.3125 L 3.9375 -13.3125 L 3.9375 -7.921875 L 9.28125 -7.921875 L 9.28125 -13.3125 L 12.015625 -13.3125 Z M 12.015625 0 "/></g></g></g><g fill="#000000" fill-opacity="1"><g transform="translate(145.546018, 124.83012)"><g><path d="M 9.078125 0 L 0.8125 0 L 0.8125 -1.640625 L 4.71875 -5.796875 C 5.25 -6.378906 5.644531 -6.890625 5.90625 -7.328125 C 6.164062 -7.765625 6.296875 -8.175781 6.296875 -8.5625 C 6.296875 -9.101562 6.160156 -9.523438 5.890625 -9.828125 C 5.617188 -10.140625 5.234375 -10.296875 4.734375 -10.296875 C 4.191406 -10.296875 3.765625 -10.109375 3.453125 -9.734375 C 3.140625 -9.359375 2.984375 -8.867188 2.984375 -8.265625 L 0.578125 -8.265625 C 0.578125 -8.992188 0.75 -9.660156 1.09375 -10.265625 C 1.445312 -10.878906 1.941406 -11.359375 2.578125 -11.703125 C 3.222656 -12.046875 3.953125 -12.21875 4.765625 -12.21875 C 6.003906 -12.21875 6.96875 -11.921875 7.65625 -11.328125 C 8.34375 -10.734375 8.6875 -9.890625 8.6875 -8.796875 C 8.6875 -8.203125 8.53125 -7.59375 8.21875 -6.96875 C 7.914062 -6.351562 7.390625 -5.632812 6.640625 -4.8125 L 3.90625 -1.921875 L 9.078125 -1.921875 Z M 9.078125 0 "/></g></g></g><g fill="#000000" fill-opacity="1"><g transform="translate(124.676551, 99.359361)"><g><path d="M 3.1875 2.46875 L 1.578125 2.46875 L 1.578125 -13.3125 L 3.1875 -13.3125 Z M 3.1875 2.46875 "/></g></g></g><g fill="#000000" fill-opacity="1"><g transform="translate(120.649123, 80.898611)"><g><path d="M 11.640625 -4.4375 C 11.535156 -3 11.003906 -1.867188 10.046875 -1.046875 C 9.097656 -0.222656 7.84375 0.1875 6.28125 0.1875 C 4.570312 0.1875 3.226562 -0.382812 2.25 -1.53125 C 1.269531 -2.6875 0.78125 -4.265625 0.78125 -6.265625 L 0.78125 -7.078125 C 0.78125 -8.359375 1.003906 -9.484375 1.453125 -10.453125 C 1.910156 -11.429688 2.554688 -12.179688 3.390625 -12.703125 C 4.234375 -13.222656 5.207031 -13.484375 6.3125 -13.484375 C 7.851562 -13.484375 9.09375 -13.070312 10.03125 -12.25 C 10.96875 -11.425781 11.507812 -10.273438 11.65625 -8.796875 L 8.90625 -8.796875 C 8.84375 -9.648438 8.601562 -10.269531 8.1875 -10.65625 C 7.78125 -11.050781 7.15625 -11.25 6.3125 -11.25 C 5.394531 -11.25 4.707031 -10.921875 4.25 -10.265625 C 3.800781 -9.609375 3.570312 -8.59375 3.5625 -7.21875 L 3.5625 -6.203125 C 3.5625 -4.765625 3.78125 -3.710938 4.21875 -3.046875 C 4.65625 -2.390625 5.34375 -2.0625 6.28125 -2.0625 C 7.125 -2.0625 7.753906 -2.253906 8.171875 -2.640625 C 8.585938 -3.023438 8.828125 -3.625 8.890625 -4.4375 Z M 11.640625 -4.4375 "/></g></g></g><g fill="#000000" fill-opacity="1"><g transform="translate(132.893329, 80.898611)"><g><path d="M 12.015625 0 L 9.28125 0 L 9.28125 -5.703125 L 3.9375 -5.703125 L 3.9375 0 L 1.1875 0 L 1.1875 -13.3125 L 3.9375 -13.3125 L 3.9375 -7.921875 L 9.28125 -7.921875 L 9.28125 -13.3125 L 12.015625 -13.3125 Z M 12.015625 0 "/></g></g></g><g fill="#000000" fill-opacity="1"><g transform="translate(150.391348, 87.01052)"><g/></g></g><g fill="#000000" fill-opacity="1"><g transform="translate(120.649123, 44.767832)"><g><path d="M 11.640625 -4.4375 C 11.535156 -3 11.003906 -1.867188 10.046875 -1.046875 C 9.097656 -0.222656 7.84375 0.1875 6.28125 0.1875 C 4.570312 0.1875 3.226562 -0.382812 2.25 -1.53125 C 1.269531 -2.6875 0.78125 -4.265625 0.78125 -6.265625 L 0.78125 -7.078125 C 0.78125 -8.359375 1.003906 -9.484375 1.453125 -10.453125 C 1.910156 -11.429688 2.554688 -12.179688 3.390625 -12.703125 C 4.234375 -13.222656 5.207031 -13.484375 6.3125 -13.484375 C 7.851562 -13.484375 9.09375 -13.070312 10.03125 -12.25 C 10.96875 -11.425781 11.507812 -10.273438 11.65625 -8.796875 L 8.90625 -8.796875 C 8.84375 -9.648438 8.601562 -10.269531 8.1875 -10.65625 C 7.78125 -11.050781 7.15625 -11.25 6.3125 -11.25 C 5.394531 -11.25 4.707031 -10.921875 4.25 -10.265625 C 3.800781 -9.609375 3.570312 -8.59375 3.5625 -7.21875 L 3.5625 -6.203125 C 3.5625 -4.765625 3.78125 -3.710938 4.21875 -3.046875 C 4.65625 -2.390625 5.34375 -2.0625 6.28125 -2.0625 C 7.125 -2.0625 7.753906 -2.253906 8.171875 -2.640625 C 8.585938 -3.023438 8.828125 -3.625 8.890625 -4.4375 Z M 11.640625 -4.4375 "/></g></g></g><g fill="#000000" fill-opacity="1"><g transform="translate(132.893329, 44.767832)"><g><path d="M 12.015625 0 L 9.28125 0 L 9.28125 -5.703125 L 3.9375 -5.703125 L 3.9375 0 L 1.1875 0 L 1.1875 -13.3125 L 3.9375 -13.3125 L 3.9375 -7.921875 L 9.28125 -7.921875 L 9.28125 -13.3125 L 12.015625 -13.3125 Z M 12.015625 0 "/></g></g></g><g fill="#000000" fill-opacity="1"><g transform="translate(145.546018, 50.879744)"><g><path d="M 9.078125 0 L 0.8125 0 L 0.8125 -1.640625 L 4.71875 -5.796875 C 5.25 -6.378906 5.644531 -6.890625 5.90625 -7.328125 C 6.164062 -7.765625 6.296875 -8.175781 6.296875 -8.5625 C 6.296875 -9.101562 6.160156 -9.523438 5.890625 -9.828125 C 5.617188 -10.140625 5.234375 -10.296875 4.734375 -10.296875 C 4.191406 -10.296875 3.765625 -10.109375 3.453125 -9.734375 C 3.140625 -9.359375 2.984375 -8.867188 2.984375 -8.265625 L 0.578125 -8.265625 C 0.578125 -8.992188 0.75 -9.660156 1.09375 -10.265625 C 1.445312 -10.878906 1.941406 -11.359375 2.578125 -11.703125 C 3.222656 -12.046875 3.953125 -12.21875 4.765625 -12.21875 C 6.003906 -12.21875 6.96875 -11.921875 7.65625 -11.328125 C 8.34375 -10.734375 8.6875 -9.890625 8.6875 -8.796875 C 8.6875 -8.203125 8.53125 -7.59375 8.21875 -6.96875 C 7.914062 -6.351562 7.390625 -5.632812 6.640625 -4.8125 L 3.90625 -1.921875 L 9.078125 -1.921875 Z M 9.078125 0 "/></g></g></g><g fill="#000000" fill-opacity="1"><g transform="translate(124.676551, 61.539752)"><g><path d="M 3.1875 2.46875 L 1.578125 2.46875 L 1.578125 -13.3125 L 3.1875 -13.3125 Z M 3.1875 2.46875 "/></g></g></g><g fill="#000000" fill-opacity="1"><g transform="translate(193.953996, 37.167989)"><g><path d="M -2.46875 3.1875 L -2.46875 1.578125 L 13.3125 1.578125 L 13.3125 3.1875 Z M -2.46875 3.1875 "/></g></g></g><g fill="#000000" fill-opacity="1"><g transform="translate(177.074181, 46.45948)"><g><path d="M 12.125 -6.359375 C 12.125 -5.046875 11.890625 -3.894531 11.421875 -2.90625 C 10.960938 -1.914062 10.300781 -1.148438 9.4375 -0.609375 C 8.570312 -0.078125 7.582031 0.1875 6.46875 0.1875 C 5.363281 0.1875 4.378906 -0.078125 3.515625 -0.609375 C 2.648438 -1.140625 1.976562 -1.894531 1.5 -2.875 C 1.03125 -3.863281 0.789062 -5 0.78125 -6.28125 L 0.78125 -6.9375 C 0.78125 -8.25 1.015625 -9.398438 1.484375 -10.390625 C 1.960938 -11.390625 2.632812 -12.15625 3.5 -12.6875 C 4.363281 -13.21875 5.347656 -13.484375 6.453125 -13.484375 C 7.554688 -13.484375 8.539062 -13.21875 9.40625 -12.6875 C 10.269531 -12.15625 10.9375 -11.390625 11.40625 -10.390625 C 11.882812 -9.398438 12.125 -8.253906 12.125 -6.953125 Z M 9.34375 -6.953125 C 9.34375 -8.347656 9.09375 -9.40625 8.59375 -10.125 C 8.09375 -10.851562 7.378906 -11.21875 6.453125 -11.21875 C 5.535156 -11.21875 4.828125 -10.859375 4.328125 -10.140625 C 3.828125 -9.429688 3.570312 -8.382812 3.5625 -7 L 3.5625 -6.359375 C 3.5625 -4.992188 3.8125 -3.9375 4.3125 -3.1875 C 4.8125 -2.4375 5.53125 -2.0625 6.46875 -2.0625 C 7.382812 -2.0625 8.085938 -2.421875 8.578125 -3.140625 C 9.078125 -3.867188 9.332031 -4.925781 9.34375 -6.3125 Z M 9.34375 -6.953125 "/></g></g></g><g fill="#000000" fill-opacity="1"><g transform="translate(159.912867, 37.167989)"><g><path d="M -2.46875 3.1875 L -2.46875 1.578125 L 13.3125 1.578125 L 13.3125 3.1875 Z M -2.46875 3.1875 "/></g></g></g><g fill="#000000" fill-opacity="1"><g transform="translate(103.433098, 72.858189)"><g><path d="M -2.46875 3.1875 L -2.46875 1.578125 L 13.3125 1.578125 L 13.3125 3.1875 Z M -2.46875 3.1875 "/></g></g></g><g fill="#000000" fill-opacity="1"><g transform="translate(86.553289, 82.149679)"><g><path d="M 12.125 -6.359375 C 12.125 -5.046875 11.890625 -3.894531 11.421875 -2.90625 C 10.960938 -1.914062 10.300781 -1.148438 9.4375 -0.609375 C 8.570312 -0.078125 7.582031 0.1875 6.46875 0.1875 C 5.363281 0.1875 4.378906 -0.078125 3.515625 -0.609375 C 2.648438 -1.140625 1.976562 -1.894531 1.5 -2.875 C 1.03125 -3.863281 0.789062 -5 0.78125 -6.28125 L 0.78125 -6.9375 C 0.78125 -8.25 1.015625 -9.398438 1.484375 -10.390625 C 1.960938 -11.390625 2.632812 -12.15625 3.5 -12.6875 C 4.363281 -13.21875 5.347656 -13.484375 6.453125 -13.484375 C 7.554688 -13.484375 8.539062 -13.21875 9.40625 -12.6875 C 10.269531 -12.15625 10.9375 -11.390625 11.40625 -10.390625 C 11.882812 -9.398438 12.125 -8.253906 12.125 -6.953125 Z M 9.34375 -6.953125 C 9.34375 -8.347656 9.09375 -9.40625 8.59375 -10.125 C 8.09375 -10.851562 7.378906 -11.21875 6.453125 -11.21875 C 5.535156 -11.21875 4.828125 -10.859375 4.328125 -10.140625 C 3.828125 -9.429688 3.570312 -8.382812 3.5625 -7 L 3.5625 -6.359375 C 3.5625 -4.992188 3.8125 -3.9375 4.3125 -3.1875 C 4.8125 -2.4375 5.53125 -2.0625 6.46875 -2.0625 C 7.382812 -2.0625 8.085938 -2.421875 8.578125 -3.140625 C 9.078125 -3.867188 9.332031 -4.925781 9.34375 -6.3125 Z M 9.34375 -6.953125 "/></g></g></g><g fill="#000000" fill-opacity="1"><g transform="translate(69.39199, 72.858189)"><g><path d="M -2.46875 3.1875 L -2.46875 1.578125 L 13.3125 1.578125 L 13.3125 3.1875 Z M -2.46875 3.1875 "/></g></g></g><g fill="#000000" fill-opacity="1"><g transform="translate(50.247156, 82.149679)"><g><path d="M 11.640625 -4.4375 C 11.535156 -3 11.003906 -1.867188 10.046875 -1.046875 C 9.097656 -0.222656 7.84375 0.1875 6.28125 0.1875 C 4.570312 0.1875 3.226562 -0.382812 2.25 -1.53125 C 1.269531 -2.6875 0.78125 -4.265625 0.78125 -6.265625 L 0.78125 -7.078125 C 0.78125 -8.359375 1.003906 -9.484375 1.453125 -10.453125 C 1.910156 -11.429688 2.554688 -12.179688 3.390625 -12.703125 C 4.234375 -13.222656 5.207031 -13.484375 6.3125 -13.484375 C 7.851562 -13.484375 9.09375 -13.070312 10.03125 -12.25 C 10.96875 -11.425781 11.507812 -10.273438 11.65625 -8.796875 L 8.90625 -8.796875 C 8.84375 -9.648438 8.601562 -10.269531 8.1875 -10.65625 C 7.78125 -11.050781 7.15625 -11.25 6.3125 -11.25 C 5.394531 -11.25 4.707031 -10.921875 4.25 -10.265625 C 3.800781 -9.609375 3.570312 -8.59375 3.5625 -7.21875 L 3.5625 -6.203125 C 3.5625 -4.765625 3.78125 -3.710938 4.21875 -3.046875 C 4.65625 -2.390625 5.34375 -2.0625 6.28125 -2.0625 C 7.125 -2.0625 7.753906 -2.253906 8.171875 -2.640625 C 8.585938 -3.023438 8.828125 -3.625 8.890625 -4.4375 Z M 11.640625 -4.4375 "/></g></g></g><g fill="#000000" fill-opacity="1"><g transform="translate(35.350874, 72.858189)"><g><path d="M -2.46875 3.1875 L -2.46875 1.578125 L 13.3125 1.578125 L 13.3125 3.1875 Z M -2.46875 3.1875 "/></g></g></g><g fill="#000000" fill-opacity="1"><g transform="translate(7.322027, 79.215188)"><g><path d="M 6.109375 -4.875 L 3.9375 -4.875 L 3.9375 0 L 1.1875 0 L 1.1875 -13.3125 L 6.140625 -13.3125 C 7.703125 -13.3125 8.910156 -12.957031 9.765625 -12.25 C 10.617188 -11.550781 11.046875 -10.5625 11.046875 -9.28125 C 11.046875 -8.375 10.847656 -7.617188 10.453125 -7.015625 C 10.066406 -6.410156 9.472656 -5.925781 8.671875 -5.5625 L 11.546875 -0.125 L 11.546875 0 L 8.609375 0 Z M 3.9375 -7.09375 L 6.140625 -7.09375 C 6.828125 -7.09375 7.359375 -7.265625 7.734375 -7.609375 C 8.117188 -7.960938 8.3125 -8.445312 8.3125 -9.0625 C 8.3125 -9.695312 8.128906 -10.191406 7.765625 -10.546875 C 7.410156 -10.910156 6.867188 -11.09375 6.140625 -11.09375 L 3.9375 -11.09375 Z M 3.9375 -7.09375 "/></g></g></g><g fill="#000000" fill-opacity="1"><g transform="translate(19.113532, 85.327106)"><g><path d="M 9.078125 0 L 0.8125 0 L 0.8125 -1.640625 L 4.71875 -5.796875 C 5.25 -6.378906 5.644531 -6.890625 5.90625 -7.328125 C 6.164062 -7.765625 6.296875 -8.175781 6.296875 -8.5625 C 6.296875 -9.101562 6.160156 -9.523438 5.890625 -9.828125 C 5.617188 -10.140625 5.234375 -10.296875 4.734375 -10.296875 C 4.191406 -10.296875 3.765625 -10.109375 3.453125 -9.734375 C 3.140625 -9.359375 2.984375 -8.867188 2.984375 -8.265625 L 0.578125 -8.265625 C 0.578125 -8.992188 0.75 -9.660156 1.09375 -10.265625 C 1.445312 -10.878906 1.941406 -11.359375 2.578125 -11.703125 C 3.222656 -12.046875 3.953125 -12.21875 4.765625 -12.21875 C 6.003906 -12.21875 6.96875 -11.921875 7.65625 -11.328125 C 8.34375 -10.734375 8.6875 -9.890625 8.6875 -8.796875 C 8.6875 -8.203125 8.53125 -7.59375 8.21875 -6.96875 C 7.914062 -6.351562 7.390625 -5.632812 6.640625 -4.8125 L 3.90625 -1.921875 L 9.078125 -1.921875 Z M 9.078125 0 "/></g></g></g><g fill="#000000" fill-opacity="1"><g transform="translate(63.296885, 66.503526)"><g><path d="M -6.8125 -9.421875 L -6.8125 -1.25 L -8.96875 -1.25 L -8.96875 -9.421875 Z M -2.859375 -9.421875 L -2.859375 -1.25 L -5.015625 -1.25 L -5.015625 -9.421875 Z M -2.859375 -9.421875 "/></g></g></g><g fill="#000000" fill-opacity="1"><g transform="translate(49.905498, 53.590762)"><g><path d="M 12.125 -6.359375 C 12.125 -5.046875 11.890625 -3.894531 11.421875 -2.90625 C 10.960938 -1.914062 10.300781 -1.148438 9.4375 -0.609375 C 8.570312 -0.078125 7.582031 0.1875 6.46875 0.1875 C 5.363281 0.1875 4.378906 -0.078125 3.515625 -0.609375 C 2.648438 -1.140625 1.976562 -1.894531 1.5 -2.875 C 1.03125 -3.863281 0.789062 -5 0.78125 -6.28125 L 0.78125 -6.9375 C 0.78125 -8.25 1.015625 -9.398438 1.484375 -10.390625 C 1.960938 -11.390625 2.632812 -12.15625 3.5 -12.6875 C 4.363281 -13.21875 5.347656 -13.484375 6.453125 -13.484375 C 7.554688 -13.484375 8.539062 -13.21875 9.40625 -12.6875 C 10.269531 -12.15625 10.9375 -11.390625 11.40625 -10.390625 C 11.882812 -9.398438 12.125 -8.253906 12.125 -6.953125 Z M 9.34375 -6.953125 C 9.34375 -8.347656 9.09375 -9.40625 8.59375 -10.125 C 8.09375 -10.851562 7.378906 -11.21875 6.453125 -11.21875 C 5.535156 -11.21875 4.828125 -10.859375 4.328125 -10.140625 C 3.828125 -9.429688 3.570312 -8.382812 3.5625 -7 L 3.5625 -6.359375 C 3.5625 -4.992188 3.8125 -3.9375 4.3125 -3.1875 C 4.8125 -2.4375 5.53125 -2.0625 6.46875 -2.0625 C 7.382812 -2.0625 8.085938 -2.421875 8.578125 -3.140625 C 9.078125 -3.867188 9.332031 -4.925781 9.34375 -6.3125 Z M 9.34375 -6.953125 "/></g></g></g><g fill="#000000" fill-opacity="1"><g transform="translate(212.290047, 46.45948)"><g><path d="M 11.640625 -4.4375 C 11.535156 -3 11.003906 -1.867188 10.046875 -1.046875 C 9.097656 -0.222656 7.84375 0.1875 6.28125 0.1875 C 4.570312 0.1875 3.226562 -0.382812 2.25 -1.53125 C 1.269531 -2.6875 0.78125 -4.265625 0.78125 -6.265625 L 0.78125 -7.078125 C 0.78125 -8.359375 1.003906 -9.484375 1.453125 -10.453125 C 1.910156 -11.429688 2.554688 -12.179688 3.390625 -12.703125 C 4.234375 -13.222656 5.207031 -13.484375 6.3125 -13.484375 C 7.851562 -13.484375 9.09375 -13.070312 10.03125 -12.25 C 10.96875 -11.425781 11.507812 -10.273438 11.65625 -8.796875 L 8.90625 -8.796875 C 8.84375 -9.648438 8.601562 -10.269531 8.1875 -10.65625 C 7.78125 -11.050781 7.15625 -11.25 6.3125 -11.25 C 5.394531 -11.25 4.707031 -10.921875 4.25 -10.265625 C 3.800781 -9.609375 3.570312 -8.59375 3.5625 -7.21875 L 3.5625 -6.203125 C 3.5625 -4.765625 3.78125 -3.710938 4.21875 -3.046875 C 4.65625 -2.390625 5.34375 -2.0625 6.28125 -2.0625 C 7.125 -2.0625 7.753906 -2.253906 8.171875 -2.640625 C 8.585938 -3.023438 8.828125 -3.625 8.890625 -4.4375 Z M 11.640625 -4.4375 "/></g></g></g><g fill="#000000" fill-opacity="1"><g transform="translate(225.339758, 29.9245)"><g><path d="M -6.8125 -9.421875 L -6.8125 -1.25 L -8.96875 -1.25 L -8.96875 -9.421875 Z M -2.859375 -9.421875 L -2.859375 -1.25 L -5.015625 -1.25 L -5.015625 -9.421875 Z M -2.859375 -9.421875 "/></g></g></g><g fill="#000000" fill-opacity="1"><g transform="translate(211.948389, 17.01174)"><g><path d="M 12.125 -6.359375 C 12.125 -5.046875 11.890625 -3.894531 11.421875 -2.90625 C 10.960938 -1.914062 10.300781 -1.148438 9.4375 -0.609375 C 8.570312 -0.078125 7.582031 0.1875 6.46875 0.1875 C 5.363281 0.1875 4.378906 -0.078125 3.515625 -0.609375 C 2.648438 -1.140625 1.976562 -1.894531 1.5 -2.875 C 1.03125 -3.863281 0.789062 -5 0.78125 -6.28125 L 0.78125 -6.9375 C 0.78125 -8.25 1.015625 -9.398438 1.484375 -10.390625 C 1.960938 -11.390625 2.632812 -12.15625 3.5 -12.6875 C 4.363281 -13.21875 5.347656 -13.484375 6.453125 -13.484375 C 7.554688 -13.484375 8.539062 -13.21875 9.40625 -12.6875 C 10.269531 -12.15625 10.9375 -11.390625 11.40625 -10.390625 C 11.882812 -9.398438 12.125 -8.253906 12.125 -6.953125 Z M 9.34375 -6.953125 C 9.34375 -8.347656 9.09375 -9.40625 8.59375 -10.125 C 8.09375 -10.851562 7.378906 -11.21875 6.453125 -11.21875 C 5.535156 -11.21875 4.828125 -10.859375 4.328125 -10.140625 C 3.828125 -9.429688 3.570312 -8.382812 3.5625 -7 L 3.5625 -6.359375 C 3.5625 -4.992188 3.8125 -3.9375 4.3125 -3.1875 C 4.8125 -2.4375 5.53125 -2.0625 6.46875 -2.0625 C 7.382812 -2.0625 8.085938 -2.421875 8.578125 -3.140625 C 9.078125 -3.867188 9.332031 -4.925781 9.34375 -6.3125 Z M 9.34375 -6.953125 "/></g></g></g><g fill="#000000" fill-opacity="1"><g transform="translate(228.635326, 37.086793)"><g><path d="M -2.46875 3.1875 L -2.46875 1.578125 L 13.3125 1.578125 L 13.3125 3.1875 Z M -2.46875 3.1875 "/></g></g></g><g fill="#000000" fill-opacity="1"><g transform="translate(246.034239, 46.45948)"><g><path d="M 6.109375 -4.875 L 3.9375 -4.875 L 3.9375 0 L 1.1875 0 L 1.1875 -13.3125 L 6.140625 -13.3125 C 7.703125 -13.3125 8.910156 -12.957031 9.765625 -12.25 C 10.617188 -11.550781 11.046875 -10.5625 11.046875 -9.28125 C 11.046875 -8.375 10.847656 -7.617188 10.453125 -7.015625 C 10.066406 -6.410156 9.472656 -5.925781 8.671875 -5.5625 L 11.546875 -0.125 L 11.546875 0 L 8.609375 0 Z M 3.9375 -7.09375 L 6.140625 -7.09375 C 6.828125 -7.09375 7.359375 -7.265625 7.734375 -7.609375 C 8.117188 -7.960938 8.3125 -8.445312 8.3125 -9.0625 C 8.3125 -9.695312 8.128906 -10.191406 7.765625 -10.546875 C 7.410156 -10.910156 6.867188 -11.09375 6.140625 -11.09375 L 3.9375 -11.09375 Z M 3.9375 -7.09375 "/></g></g></g><g fill="#000000" fill-opacity="1"><g transform="translate(257.825724, 52.571389)"><g><path d="M 6.625 0 L 4.234375 0 L 4.234375 -9.21875 L 1.375 -8.328125 L 1.375 -10.28125 L 6.375 -12.0625 L 6.625 -12.0625 Z M 6.625 0 "/></g></g></g></svg>