<svg xmlns="http://www.w3.org/2000/svg" xmlns:xlink="http://www.w3.org/1999/xlink" width="553" zoomAndPan="magnify" viewBox="0 0 414.75 207.75" height="277" preserveAspectRatio="xMidYMid meet" version="1.0"><defs><g/></defs><g fill="#000000" fill-opacity="1"><g transform="translate(347.042265, 175.428572)"><g><path d="M -3.8125 4.90625 L -3.8125 2.4375 L 20.53125 2.4375 L 20.53125 4.90625 Z M -3.8125 4.90625 "/></g></g></g><g fill="#000000" fill-opacity="1"><g transform="translate(321.837751, 189.777296)"><g><path d="M 17.953125 -6.84375 C 17.785156 -4.632812 16.96875 -2.894531 15.5 -1.625 C 14.03125 -0.351562 12.09375 0.28125 9.6875 0.28125 C 7.050781 0.28125 4.976562 -0.601562 3.46875 -2.375 C 1.96875 -4.144531 1.21875 -6.578125 1.21875 -9.671875 L 1.21875 -10.921875 C 1.21875 -12.898438 1.5625 -14.640625 2.25 -16.140625 C 2.945312 -17.648438 3.941406 -18.804688 5.234375 -19.609375 C 6.523438 -20.410156 8.03125 -20.8125 9.75 -20.8125 C 12.113281 -20.8125 14.019531 -20.175781 15.46875 -18.90625 C 16.914062 -17.632812 17.75 -15.851562 17.96875 -13.5625 L 13.75 -13.5625 C 13.644531 -14.882812 13.273438 -15.84375 12.640625 -16.4375 C 12.003906 -17.039062 11.039062 -17.34375 9.75 -17.34375 C 8.332031 -17.34375 7.273438 -16.835938 6.578125 -15.828125 C 5.878906 -14.816406 5.519531 -13.25 5.5 -11.125 L 5.5 -9.578125 C 5.5 -7.359375 5.832031 -5.734375 6.5 -4.703125 C 7.175781 -3.679688 8.238281 -3.171875 9.6875 -3.171875 C 10.988281 -3.171875 11.960938 -3.46875 12.609375 -4.0625 C 13.253906 -4.664062 13.625 -5.59375 13.71875 -6.84375 Z M 17.953125 -6.84375 "/></g></g></g><g fill="#000000" fill-opacity="1"><g transform="translate(339.106808, 164.308391)"><g><path d="M -10.515625 -14.515625 L -10.515625 -1.921875 L -13.84375 -1.921875 L -13.84375 -14.515625 Z M -4.40625 -14.515625 L -4.40625 -1.921875 L -7.734375 -1.921875 L -7.734375 -14.515625 Z M -4.40625 -14.515625 "/></g></g></g><g fill="#000000" fill-opacity="1"><g transform="translate(318.457228, 144.396842)"><g><path d="M 18.703125 -9.796875 C 18.703125 -7.773438 18.34375 -6.003906 17.625 -4.484375 C 16.90625 -2.960938 15.878906 -1.785156 14.546875 -0.953125 C 13.222656 -0.128906 11.703125 0.28125 9.984375 0.28125 C 8.285156 0.28125 6.765625 -0.125 5.421875 -0.9375 C 4.085938 -1.757812 3.054688 -2.925781 2.328125 -4.4375 C 1.597656 -5.957031 1.226562 -7.707031 1.21875 -9.6875 L 1.21875 -10.703125 C 1.21875 -12.722656 1.578125 -14.5 2.296875 -16.03125 C 3.023438 -17.570312 4.054688 -18.753906 5.390625 -19.578125 C 6.722656 -20.398438 8.242188 -20.8125 9.953125 -20.8125 C 11.660156 -20.8125 13.179688 -20.398438 14.515625 -19.578125 C 15.847656 -18.753906 16.878906 -17.570312 17.609375 -16.03125 C 18.335938 -14.5 18.703125 -12.726562 18.703125 -10.71875 Z M 14.40625 -10.734375 C 14.40625 -12.878906 14.019531 -14.507812 13.25 -15.625 C 12.476562 -16.75 11.378906 -17.3125 9.953125 -17.3125 C 8.535156 -17.3125 7.441406 -16.757812 6.671875 -15.65625 C 5.898438 -14.550781 5.507812 -12.929688 5.5 -10.796875 L 5.5 -9.796875 C 5.5 -7.703125 5.882812 -6.078125 6.65625 -4.921875 C 7.425781 -3.765625 8.535156 -3.1875 9.984375 -3.1875 C 11.398438 -3.1875 12.488281 -3.742188 13.25 -4.859375 C 14.007812 -5.972656 14.394531 -7.597656 14.40625 -9.734375 Z M 14.40625 -10.734375 "/></g></g></g><g fill="#000000" fill-opacity="1"><g transform="translate(294.069294, 175.428572)"><g><path d="M -3.8125 4.90625 L -3.8125 2.4375 L 20.53125 2.4375 L 20.53125 4.90625 Z M -3.8125 4.90625 "/></g></g></g><g fill="#000000" fill-opacity="1"><g transform="translate(268.040526, 189.756095)"><g><path d="M 18.703125 -9.796875 C 18.703125 -7.773438 18.34375 -6.003906 17.625 -4.484375 C 16.90625 -2.960938 15.878906 -1.785156 14.546875 -0.953125 C 13.222656 -0.128906 11.703125 0.28125 9.984375 0.28125 C 8.285156 0.28125 6.765625 -0.125 5.421875 -0.9375 C 4.085938 -1.757812 3.054688 -2.925781 2.328125 -4.4375 C 1.597656 -5.957031 1.226562 -7.707031 1.21875 -9.6875 L 1.21875 -10.703125 C 1.21875 -12.722656 1.578125 -14.5 2.296875 -16.03125 C 3.023438 -17.570312 4.054688 -18.753906 5.390625 -19.578125 C 6.722656 -20.398438 8.242188 -20.8125 9.953125 -20.8125 C 11.660156 -20.8125 13.179688 -20.398438 14.515625 -19.578125 C 15.847656 -18.753906 16.878906 -17.570312 17.609375 -16.03125 C 18.335938 -14.5 18.703125 -12.726562 18.703125 -10.71875 Z M 14.40625 -10.734375 C 14.40625 -12.878906 14.019531 -14.507812 13.25 -15.625 C 12.476562 -16.75 11.378906 -17.3125 9.953125 -17.3125 C 8.535156 -17.3125 7.441406 -16.757812 6.671875 -15.65625 C 5.898438 -14.550781 5.507812 -12.929688 5.5 -10.796875 L 5.5 -9.796875 C 5.5 -7.703125 5.882812 -6.078125 6.65625 -4.921875 C 7.425781 -3.765625 8.535156 -3.1875 9.984375 -3.1875 C 11.398438 -3.1875 12.488281 -3.742188 13.25 -4.859375 C 14.007812 -5.972656 14.394531 -7.597656 14.40625 -9.734375 Z M 14.40625 -10.734375 "/></g></g></g><g fill="#000000" fill-opacity="1"><g transform="translate(241.577678, 175.428572)"><g><path d="M -3.8125 4.90625 L -3.8125 2.4375 L 20.53125 2.4375 L 20.53125 4.90625 Z M -3.8125 4.90625 "/></g></g></g><g fill="#000000" fill-opacity="1"><g transform="translate(180.52694, 185.231102)"><g><path d="M 17.953125 -6.84375 C 17.785156 -4.632812 16.96875 -2.894531 15.5 -1.625 C 14.03125 -0.351562 12.09375 0.28125 9.6875 0.28125 C 7.050781 0.28125 4.976562 -0.601562 3.46875 -2.375 C 1.96875 -4.144531 1.21875 -6.578125 1.21875 -9.671875 L 1.21875 -10.921875 C 1.21875 -12.898438 1.5625 -14.640625 2.25 -16.140625 C 2.945312 -17.648438 3.941406 -18.804688 5.234375 -19.609375 C 6.523438 -20.410156 8.03125 -20.8125 9.75 -20.8125 C 12.113281 -20.8125 14.019531 -20.175781 15.46875 -18.90625 C 16.914062 -17.632812 17.75 -15.851562 17.96875 -13.5625 L 13.75 -13.5625 C 13.644531 -14.882812 13.273438 -15.84375 12.640625 -16.4375 C 12.003906 -17.039062 11.039062 -17.34375 9.75 -17.34375 C 8.332031 -17.34375 7.273438 -16.835938 6.578125 -15.828125 C 5.878906 -14.816406 5.519531 -13.25 5.5 -11.125 L 5.5 -9.578125 C 5.5 -7.359375 5.832031 -5.734375 6.5 -4.703125 C 7.175781 -3.679688 8.238281 -3.171875 9.6875 -3.171875 C 10.988281 -3.171875 11.960938 -3.46875 12.609375 -4.0625 C 13.253906 -4.664062 13.625 -5.59375 13.71875 -6.84375 Z M 17.953125 -6.84375 "/></g></g></g><g fill="#000000" fill-opacity="1"><g transform="translate(199.407575, 185.231102)"><g><path d="M 18.546875 0 L 14.3125 0 L 14.3125 -8.796875 L 6.0625 -8.796875 L 6.0625 0 L 1.828125 0 L 1.828125 -20.53125 L 6.0625 -20.53125 L 6.0625 -12.203125 L 14.3125 -12.203125 L 14.3125 -20.53125 L 18.546875 -20.53125 Z M 18.546875 0 "/></g></g></g><g fill="#000000" fill-opacity="1"><g transform="translate(218.918098, 194.655704)"><g><path d="M 14 0 L 1.265625 0 L 1.265625 -2.53125 L 7.265625 -8.921875 C 8.097656 -9.828125 8.707031 -10.613281 9.09375 -11.28125 C 9.488281 -11.957031 9.6875 -12.597656 9.6875 -13.203125 C 9.6875 -14.023438 9.476562 -14.671875 9.0625 -15.140625 C 8.644531 -15.617188 8.050781 -15.859375 7.28125 -15.859375 C 6.445312 -15.859375 5.789062 -15.570312 5.3125 -15 C 4.832031 -14.425781 4.59375 -13.671875 4.59375 -12.734375 L 0.890625 -12.734375 C 0.890625 -13.859375 1.160156 -14.890625 1.703125 -15.828125 C 2.242188 -16.765625 3.003906 -17.5 3.984375 -18.03125 C 4.972656 -18.5625 6.09375 -18.828125 7.34375 -18.828125 C 9.257812 -18.828125 10.742188 -18.367188 11.796875 -17.453125 C 12.859375 -16.535156 13.390625 -15.238281 13.390625 -13.5625 C 13.390625 -12.644531 13.148438 -11.707031 12.671875 -10.75 C 12.203125 -9.800781 11.390625 -8.691406 10.234375 -7.421875 L 6.015625 -2.96875 L 14 -2.96875 Z M 14 0 "/></g></g></g><g fill="#000000" fill-opacity="1"><g transform="translate(186.737265, 155.379643)"><g><path d="M 4.90625 3.8125 L 2.4375 3.8125 L 2.4375 -20.53125 L 4.90625 -20.53125 Z M 4.90625 3.8125 "/></g></g></g><g fill="#000000" fill-opacity="1"><g transform="translate(180.52694, 126.913065)"><g><path d="M 17.953125 -6.84375 C 17.785156 -4.632812 16.96875 -2.894531 15.5 -1.625 C 14.03125 -0.351562 12.09375 0.28125 9.6875 0.28125 C 7.050781 0.28125 4.976562 -0.601562 3.46875 -2.375 C 1.96875 -4.144531 1.21875 -6.578125 1.21875 -9.671875 L 1.21875 -10.921875 C 1.21875 -12.898438 1.5625 -14.640625 2.25 -16.140625 C 2.945312 -17.648438 3.941406 -18.804688 5.234375 -19.609375 C 6.523438 -20.410156 8.03125 -20.8125 9.75 -20.8125 C 12.113281 -20.8125 14.019531 -20.175781 15.46875 -18.90625 C 16.914062 -17.632812 17.75 -15.851562 17.96875 -13.5625 L 13.75 -13.5625 C 13.644531 -14.882812 13.273438 -15.84375 12.640625 -16.4375 C 12.003906 -17.039062 11.039062 -17.34375 9.75 -17.34375 C 8.332031 -17.34375 7.273438 -16.835938 6.578125 -15.828125 C 5.878906 -14.816406 5.519531 -13.25 5.5 -11.125 L 5.5 -9.578125 C 5.5 -7.359375 5.832031 -5.734375 6.5 -4.703125 C 7.175781 -3.679688 8.238281 -3.171875 9.6875 -3.171875 C 10.988281 -3.171875 11.960938 -3.46875 12.609375 -4.0625 C 13.253906 -4.664062 13.625 -5.59375 13.71875 -6.84375 Z M 17.953125 -6.84375 "/></g></g></g><g fill="#000000" fill-opacity="1"><g transform="translate(199.407575, 126.913065)"><g><path d="M 18.546875 0 L 14.3125 0 L 14.3125 -8.796875 L 6.0625 -8.796875 L 6.0625 0 L 1.828125 0 L 1.828125 -20.53125 L 6.0625 -20.53125 L 6.0625 -12.203125 L 14.3125 -12.203125 L 14.3125 -20.53125 L 18.546875 -20.53125 Z M 18.546875 0 "/></g></g></g><g fill="#000000" fill-opacity="1"><g transform="translate(226.389623, 136.337666)"><g/></g></g><g fill="#000000" fill-opacity="1"><g transform="translate(180.52694, 71.199205)"><g><path d="M 17.953125 -6.84375 C 17.785156 -4.632812 16.96875 -2.894531 15.5 -1.625 C 14.03125 -0.351562 12.09375 0.28125 9.6875 0.28125 C 7.050781 0.28125 4.976562 -0.601562 3.46875 -2.375 C 1.96875 -4.144531 1.21875 -6.578125 1.21875 -9.671875 L 1.21875 -10.921875 C 1.21875 -12.898438 1.5625 -14.640625 2.25 -16.140625 C 2.945312 -17.648438 3.941406 -18.804688 5.234375 -19.609375 C 6.523438 -20.410156 8.03125 -20.8125 9.75 -20.8125 C 12.113281 -20.8125 14.019531 -20.175781 15.46875 -18.90625 C 16.914062 -17.632812 17.75 -15.851562 17.96875 -13.5625 L 13.75 -13.5625 C 13.644531 -14.882812 13.273438 -15.84375 12.640625 -16.4375 C 12.003906 -17.039062 11.039062 -17.34375 9.75 -17.34375 C 8.332031 -17.34375 7.273438 -16.835938 6.578125 -15.828125 C 5.878906 -14.816406 5.519531 -13.25 5.5 -11.125 L 5.5 -9.578125 C 5.5 -7.359375 5.832031 -5.734375 6.5 -4.703125 C 7.175781 -3.679688 8.238281 -3.171875 9.6875 -3.171875 C 10.988281 -3.171875 11.960938 -3.46875 12.609375 -4.0625 C 13.253906 -4.664062 13.625 -5.59375 13.71875 -6.84375 Z M 17.953125 -6.84375 "/></g></g></g><g fill="#000000" fill-opacity="1"><g transform="translate(199.407575, 71.199205)"><g><path d="M 18.546875 0 L 14.3125 0 L 14.3125 -8.796875 L 6.0625 -8.796875 L 6.0625 0 L 1.828125 0 L 1.828125 -20.53125 L 6.0625 -20.53125 L 6.0625 -12.203125 L 14.3125 -12.203125 L 14.3125 -20.53125 L 18.546875 -20.53125 Z M 18.546875 0 "/></g></g></g><g fill="#000000" fill-opacity="1"><g transform="translate(218.918098, 80.623807)"><g><path d="M 14 0 L 1.265625 0 L 1.265625 -2.53125 L 7.265625 -8.921875 C 8.097656 -9.828125 8.707031 -10.613281 9.09375 -11.28125 C 9.488281 -11.957031 9.6875 -12.597656 9.6875 -13.203125 C 9.6875 -14.023438 9.476562 -14.671875 9.0625 -15.140625 C 8.644531 -15.617188 8.050781 -15.859375 7.28125 -15.859375 C 6.445312 -15.859375 5.789062 -15.570312 5.3125 -15 C 4.832031 -14.425781 4.59375 -13.671875 4.59375 -12.734375 L 0.890625 -12.734375 C 0.890625 -13.859375 1.160156 -14.890625 1.703125 -15.828125 C 2.242188 -16.765625 3.003906 -17.5 3.984375 -18.03125 C 4.972656 -18.5625 6.09375 -18.828125 7.34375 -18.828125 C 9.257812 -18.828125 10.742188 -18.367188 11.796875 -17.453125 C 12.859375 -16.535156 13.390625 -15.238281 13.390625 -13.5625 C 13.390625 -12.644531 13.148438 -11.707031 12.671875 -10.75 C 12.203125 -9.800781 11.390625 -8.691406 10.234375 -7.421875 L 6.015625 -2.96875 L 14 -2.96875 Z M 14 0 "/></g></g></g><g fill="#000000" fill-opacity="1"><g transform="translate(186.737265, 97.061606)"><g><path d="M 4.90625 3.8125 L 2.4375 3.8125 L 2.4375 -20.53125 L 4.90625 -20.53125 Z M 4.90625 3.8125 "/></g></g></g><g fill="#000000" fill-opacity="1"><g transform="translate(293.563477, 59.480209)"><g><path d="M -3.8125 4.90625 L -3.8125 2.4375 L 20.53125 2.4375 L 20.53125 4.90625 Z M -3.8125 4.90625 "/></g></g></g><g fill="#000000" fill-opacity="1"><g transform="translate(267.534709, 73.807739)"><g><path d="M 18.703125 -9.796875 C 18.703125 -7.773438 18.34375 -6.003906 17.625 -4.484375 C 16.90625 -2.960938 15.878906 -1.785156 14.546875 -0.953125 C 13.222656 -0.128906 11.703125 0.28125 9.984375 0.28125 C 8.285156 0.28125 6.765625 -0.125 5.421875 -0.9375 C 4.085938 -1.757812 3.054688 -2.925781 2.328125 -4.4375 C 1.597656 -5.957031 1.226562 -7.707031 1.21875 -9.6875 L 1.21875 -10.703125 C 1.21875 -12.722656 1.578125 -14.5 2.296875 -16.03125 C 3.023438 -17.570312 4.054688 -18.753906 5.390625 -19.578125 C 6.722656 -20.398438 8.242188 -20.8125 9.953125 -20.8125 C 11.660156 -20.8125 13.179688 -20.398438 14.515625 -19.578125 C 15.847656 -18.753906 16.878906 -17.570312 17.609375 -16.03125 C 18.335938 -14.5 18.703125 -12.726562 18.703125 -10.71875 Z M 14.40625 -10.734375 C 14.40625 -12.878906 14.019531 -14.507812 13.25 -15.625 C 12.476562 -16.75 11.378906 -17.3125 9.953125 -17.3125 C 8.535156 -17.3125 7.441406 -16.757812 6.671875 -15.65625 C 5.898438 -14.550781 5.507812 -12.929688 5.5 -10.796875 L 5.5 -9.796875 C 5.5 -7.703125 5.882812 -6.078125 6.65625 -4.921875 C 7.425781 -3.765625 8.535156 -3.1875 9.984375 -3.1875 C 11.398438 -3.1875 12.488281 -3.742188 13.25 -4.859375 C 14.007812 -5.972656 14.394531 -7.597656 14.40625 -9.734375 Z M 14.40625 -10.734375 "/></g></g></g><g fill="#000000" fill-opacity="1"><g transform="translate(241.071861, 59.480209)"><g><path d="M -3.8125 4.90625 L -3.8125 2.4375 L 20.53125 2.4375 L 20.53125 4.90625 Z M -3.8125 4.90625 "/></g></g></g><g fill="#000000" fill-opacity="1"><g transform="translate(153.979748, 114.514689)"><g><path d="M -3.8125 4.90625 L -3.8125 2.4375 L 20.53125 2.4375 L 20.53125 4.90625 Z M -3.8125 4.90625 "/></g></g></g><g fill="#000000" fill-opacity="1"><g transform="translate(127.950982, 128.84222)"><g><path d="M 18.703125 -9.796875 C 18.703125 -7.773438 18.34375 -6.003906 17.625 -4.484375 C 16.90625 -2.960938 15.878906 -1.785156 14.546875 -0.953125 C 13.222656 -0.128906 11.703125 0.28125 9.984375 0.28125 C 8.285156 0.28125 6.765625 -0.125 5.421875 -0.9375 C 4.085938 -1.757812 3.054688 -2.925781 2.328125 -4.4375 C 1.597656 -5.957031 1.226562 -7.707031 1.21875 -9.6875 L 1.21875 -10.703125 C 1.21875 -12.722656 1.578125 -14.5 2.296875 -16.03125 C 3.023438 -17.570312 4.054688 -18.753906 5.390625 -19.578125 C 6.722656 -20.398438 8.242188 -20.8125 9.953125 -20.8125 C 11.660156 -20.8125 13.179688 -20.398438 14.515625 -19.578125 C 15.847656 -18.753906 16.878906 -17.570312 17.609375 -16.03125 C 18.335938 -14.5 18.703125 -12.726562 18.703125 -10.71875 Z M 14.40625 -10.734375 C 14.40625 -12.878906 14.019531 -14.507812 13.25 -15.625 C 12.476562 -16.75 11.378906 -17.3125 9.953125 -17.3125 C 8.535156 -17.3125 7.441406 -16.757812 6.671875 -15.65625 C 5.898438 -14.550781 5.507812 -12.929688 5.5 -10.796875 L 5.5 -9.796875 C 5.5 -7.703125 5.882812 -6.078125 6.65625 -4.921875 C 7.425781 -3.765625 8.535156 -3.1875 9.984375 -3.1875 C 11.398438 -3.1875 12.488281 -3.742188 13.25 -4.859375 C 14.007812 -5.972656 14.394531 -7.597656 14.40625 -9.734375 Z M 14.40625 -10.734375 "/></g></g></g><g fill="#000000" fill-opacity="1"><g transform="translate(101.488161, 114.514689)"><g><path d="M -3.8125 4.90625 L -3.8125 2.4375 L 20.53125 2.4375 L 20.53125 4.90625 Z M -3.8125 4.90625 "/></g></g></g><g fill="#000000" fill-opacity="1"><g transform="translate(71.966727, 128.84222)"><g><path d="M 17.953125 -6.84375 C 17.785156 -4.632812 16.96875 -2.894531 15.5 -1.625 C 14.03125 -0.351562 12.09375 0.28125 9.6875 0.28125 C 7.050781 0.28125 4.976562 -0.601562 3.46875 -2.375 C 1.96875 -4.144531 1.21875 -6.578125 1.21875 -9.671875 L 1.21875 -10.921875 C 1.21875 -12.898438 1.5625 -14.640625 2.25 -16.140625 C 2.945312 -17.648438 3.941406 -18.804688 5.234375 -19.609375 C 6.523438 -20.410156 8.03125 -20.8125 9.75 -20.8125 C 12.113281 -20.8125 14.019531 -20.175781 15.46875 -18.90625 C 16.914062 -17.632812 17.75 -15.851562 17.96875 -13.5625 L 13.75 -13.5625 C 13.644531 -14.882812 13.273438 -15.84375 12.640625 -16.4375 C 12.003906 -17.039062 11.039062 -17.34375 9.75 -17.34375 C 8.332031 -17.34375 7.273438 -16.835938 6.578125 -15.828125 C 5.878906 -14.816406 5.519531 -13.25 5.5 -11.125 L 5.5 -9.578125 C 5.5 -7.359375 5.832031 -5.734375 6.5 -4.703125 C 7.175781 -3.679688 8.238281 -3.171875 9.6875 -3.171875 C 10.988281 -3.171875 11.960938 -3.46875 12.609375 -4.0625 C 13.253906 -4.664062 13.625 -5.59375 13.71875 -6.84375 Z M 17.953125 -6.84375 "/></g></g></g><g fill="#000000" fill-opacity="1"><g transform="translate(48.996574, 114.514689)"><g><path d="M -3.8125 4.90625 L -3.8125 2.4375 L 20.53125 2.4375 L 20.53125 4.90625 Z M -3.8125 4.90625 "/></g></g></g><g fill="#000000" fill-opacity="1"><g transform="translate(5.775937, 124.317226)"><g><path d="M 9.4375 -7.515625 L 6.0625 -7.515625 L 6.0625 0 L 1.828125 0 L 1.828125 -20.53125 L 9.453125 -20.53125 C 11.878906 -20.53125 13.75 -19.988281 15.0625 -18.90625 C 16.382812 -17.820312 17.046875 -16.296875 17.046875 -14.328125 C 17.046875 -12.921875 16.742188 -11.75 16.140625 -10.8125 C 15.535156 -9.882812 14.613281 -9.144531 13.375 -8.59375 L 17.828125 -0.203125 L 17.828125 0 L 13.28125 0 Z M 6.0625 -10.9375 L 9.46875 -10.9375 C 10.53125 -10.9375 11.351562 -11.207031 11.9375 -11.75 C 12.519531 -12.289062 12.8125 -13.035156 12.8125 -13.984375 C 12.8125 -14.953125 12.535156 -15.710938 11.984375 -16.265625 C 11.441406 -16.828125 10.597656 -17.109375 9.453125 -17.109375 L 6.0625 -17.109375 Z M 6.0625 -10.9375 "/></g></g></g><g fill="#000000" fill-opacity="1"><g transform="translate(23.958502, 133.741828)"><g><path d="M 14 0 L 1.265625 0 L 1.265625 -2.53125 L 7.265625 -8.921875 C 8.097656 -9.828125 8.707031 -10.613281 9.09375 -11.28125 C 9.488281 -11.957031 9.6875 -12.597656 9.6875 -13.203125 C 9.6875 -14.023438 9.476562 -14.671875 9.0625 -15.140625 C 8.644531 -15.617188 8.050781 -15.859375 7.28125 -15.859375 C 6.445312 -15.859375 5.789062 -15.570312 5.3125 -15 C 4.832031 -14.425781 4.59375 -13.671875 4.59375 -12.734375 L 0.890625 -12.734375 C 0.890625 -13.859375 1.160156 -14.890625 1.703125 -15.828125 C 2.242188 -16.765625 3.003906 -17.5 3.984375 -18.03125 C 4.972656 -18.5625 6.09375 -18.828125 7.34375 -18.828125 C 9.257812 -18.828125 10.742188 -18.367188 11.796875 -17.453125 C 12.859375 -16.535156 13.390625 -15.238281 13.390625 -13.5625 C 13.390625 -12.644531 13.148438 -11.707031 12.671875 -10.75 C 12.203125 -9.800781 11.390625 -8.691406 10.234375 -7.421875 L 6.015625 -2.96875 L 14 -2.96875 Z M 14 0 "/></g></g></g><g fill="#000000" fill-opacity="1"><g transform="translate(92.089483, 104.715767)"><g><path d="M -10.515625 -14.515625 L -10.515625 -1.921875 L -13.84375 -1.921875 L -13.84375 -14.515625 Z M -4.40625 -14.515625 L -4.40625 -1.921875 L -7.734375 -1.921875 L -7.734375 -14.515625 Z M -4.40625 -14.515625 "/></g></g></g><g fill="#000000" fill-opacity="1"><g transform="translate(71.439888, 84.804218)"><g><path d="M 18.703125 -9.796875 C 18.703125 -7.773438 18.34375 -6.003906 17.625 -4.484375 C 16.90625 -2.960938 15.878906 -1.785156 14.546875 -0.953125 C 13.222656 -0.128906 11.703125 0.28125 9.984375 0.28125 C 8.285156 0.28125 6.765625 -0.125 5.421875 -0.9375 C 4.085938 -1.757812 3.054688 -2.925781 2.328125 -4.4375 C 1.597656 -5.957031 1.226562 -7.707031 1.21875 -9.6875 L 1.21875 -10.703125 C 1.21875 -12.722656 1.578125 -14.5 2.296875 -16.03125 C 3.023438 -17.570312 4.054688 -18.753906 5.390625 -19.578125 C 6.722656 -20.398438 8.242188 -20.8125 9.953125 -20.8125 C 11.660156 -20.8125 13.179688 -20.398438 14.515625 -19.578125 C 15.847656 -18.753906 16.878906 -17.570312 17.609375 -16.03125 C 18.335938 -14.5 18.703125 -12.726562 18.703125 -10.71875 Z M 14.40625 -10.734375 C 14.40625 -12.878906 14.019531 -14.507812 13.25 -15.625 C 12.476562 -16.75 11.378906 -17.3125 9.953125 -17.3125 C 8.535156 -17.3125 7.441406 -16.757812 6.671875 -15.65625 C 5.898438 -14.550781 5.507812 -12.929688 5.5 -10.796875 L 5.5 -9.796875 C 5.5 -7.703125 5.882812 -6.078125 6.65625 -4.921875 C 7.425781 -3.765625 8.535156 -3.1875 9.984375 -3.1875 C 11.398438 -3.1875 12.488281 -3.742188 13.25 -4.859375 C 14.007812 -5.972656 14.394531 -7.597656 14.40625 -9.734375 Z M 14.40625 -10.734375 "/></g></g></g><g fill="#000000" fill-opacity="1"><g transform="translate(321.837751, 73.807739)"><g><path d="M 17.953125 -6.84375 C 17.785156 -4.632812 16.96875 -2.894531 15.5 -1.625 C 14.03125 -0.351562 12.09375 0.28125 9.6875 0.28125 C 7.050781 0.28125 4.976562 -0.601562 3.46875 -2.375 C 1.96875 -4.144531 1.21875 -6.578125 1.21875 -9.671875 L 1.21875 -10.921875 C 1.21875 -12.898438 1.5625 -14.640625 2.25 -16.140625 C 2.945312 -17.648438 3.941406 -18.804688 5.234375 -19.609375 C 6.523438 -20.410156 8.03125 -20.8125 9.75 -20.8125 C 12.113281 -20.8125 14.019531 -20.175781 15.46875 -18.90625 C 16.914062 -17.632812 17.75 -15.851562 17.96875 -13.5625 L 13.75 -13.5625 C 13.644531 -14.882812 13.273438 -15.84375 12.640625 -16.4375 C 12.003906 -17.039062 11.039062 -17.34375 9.75 -17.34375 C 8.332031 -17.34375 7.273438 -16.835938 6.578125 -15.828125 C 5.878906 -14.816406 5.519531 -13.25 5.5 -11.125 L 5.5 -9.578125 C 5.5 -7.359375 5.832031 -5.734375 6.5 -4.703125 C 7.175781 -3.679688 8.238281 -3.171875 9.6875 -3.171875 C 10.988281 -3.171875 11.960938 -3.46875 12.609375 -4.0625 C 13.253906 -4.664062 13.625 -5.59375 13.71875 -6.84375 Z M 17.953125 -6.84375 "/></g></g></g><g fill="#000000" fill-opacity="1"><g transform="translate(341.960492, 48.310709)"><g><path d="M -10.515625 -14.515625 L -10.515625 -1.921875 L -13.84375 -1.921875 L -13.84375 -14.515625 Z M -4.40625 -14.515625 L -4.40625 -1.921875 L -7.734375 -1.921875 L -7.734375 -14.515625 Z M -4.40625 -14.515625 "/></g></g></g><g fill="#000000" fill-opacity="1"><g transform="translate(321.310912, 28.39916)"><g><path d="M 18.703125 -9.796875 C 18.703125 -7.773438 18.34375 -6.003906 17.625 -4.484375 C 16.90625 -2.960938 15.878906 -1.785156 14.546875 -0.953125 C 13.222656 -0.128906 11.703125 0.28125 9.984375 0.28125 C 8.285156 0.28125 6.765625 -0.125 5.421875 -0.9375 C 4.085938 -1.757812 3.054688 -2.925781 2.328125 -4.4375 C 1.597656 -5.957031 1.226562 -7.707031 1.21875 -9.6875 L 1.21875 -10.703125 C 1.21875 -12.722656 1.578125 -14.5 2.296875 -16.03125 C 3.023438 -17.570312 4.054688 -18.753906 5.390625 -19.578125 C 6.722656 -20.398438 8.242188 -20.8125 9.953125 -20.8125 C 11.660156 -20.8125 13.179688 -20.398438 14.515625 -19.578125 C 15.847656 -18.753906 16.878906 -17.570312 17.609375 -16.03125 C 18.335938 -14.5 18.703125 -12.726562 18.703125 -10.71875 Z M 14.40625 -10.734375 C 14.40625 -12.878906 14.019531 -14.507812 13.25 -15.625 C 12.476562 -16.75 11.378906 -17.3125 9.953125 -17.3125 C 8.535156 -17.3125 7.441406 -16.757812 6.671875 -15.65625 C 5.898438 -14.550781 5.507812 -12.929688 5.5 -10.796875 L 5.5 -9.796875 C 5.5 -7.703125 5.882812 -6.078125 6.65625 -4.921875 C 7.425781 -3.765625 8.535156 -3.1875 9.984375 -3.1875 C 11.398438 -3.1875 12.488281 -3.742188 13.25 -4.859375 C 14.007812 -5.972656 14.394531 -7.597656 14.40625 -9.734375 Z M 14.40625 -10.734375 "/></g></g></g><g fill="#000000" fill-opacity="1"><g transform="translate(347.042265, 59.355002)"><g><path d="M -3.8125 4.90625 L -3.8125 2.4375 L 20.53125 2.4375 L 20.53125 4.90625 Z M -3.8125 4.90625 "/></g></g></g><g fill="#000000" fill-opacity="1"><g transform="translate(373.871513, 73.807739)"><g><path d="M 9.4375 -7.515625 L 6.0625 -7.515625 L 6.0625 0 L 1.828125 0 L 1.828125 -20.53125 L 9.453125 -20.53125 C 11.878906 -20.53125 13.75 -19.988281 15.0625 -18.90625 C 16.382812 -17.820312 17.046875 -16.296875 17.046875 -14.328125 C 17.046875 -12.921875 16.742188 -11.75 16.140625 -10.8125 C 15.535156 -9.882812 14.613281 -9.144531 13.375 -8.59375 L 17.828125 -0.203125 L 17.828125 0 L 13.28125 0 Z M 6.0625 -10.9375 L 9.46875 -10.9375 C 10.53125 -10.9375 11.351562 -11.207031 11.9375 -11.75 C 12.519531 -12.289062 12.8125 -13.035156 12.8125 -13.984375 C 12.8125 -14.953125 12.535156 -15.710938 11.984375 -16.265625 C 11.441406 -16.828125 10.597656 -17.109375 9.453125 -17.109375 L 6.0625 -17.109375 Z M 6.0625 -10.9375 "/></g></g></g><g fill="#000000" fill-opacity="1"><g transform="translate(392.054049, 83.232341)"><g><path d="M 10.21875 0 L 6.53125 0 L 6.53125 -14.203125 L 2.125 -12.84375 L 2.125 -15.84375 L 9.828125 -18.59375 L 10.21875 -18.59375 Z M 10.21875 0 "/></g></g></g><g fill="#000000" fill-opacity="1"><g transform="translate(375.58841, 189.452566)"><g><path d="M 9.4375 -7.515625 L 6.0625 -7.515625 L 6.0625 0 L 1.828125 0 L 1.828125 -20.53125 L 9.453125 -20.53125 C 11.878906 -20.53125 13.75 -19.988281 15.0625 -18.90625 C 16.382812 -17.820312 17.046875 -16.296875 17.046875 -14.328125 C 17.046875 -12.921875 16.742188 -11.75 16.140625 -10.8125 C 15.535156 -9.882812 14.613281 -9.144531 13.375 -8.59375 L 17.828125 -0.203125 L 17.828125 0 L 13.28125 0 Z M 6.0625 -10.9375 L 9.46875 -10.9375 C 10.53125 -10.9375 11.351562 -11.207031 11.9375 -11.75 C 12.519531 -12.289062 12.8125 -13.035156 12.8125 -13.984375 C 12.8125 -14.953125 12.535156 -15.710938 11.984375 -16.265625 C 11.441406 -16.828125 10.597656 -17.109375 9.453125 -17.109375 L 6.0625 -17.109375 Z M 6.0625 -10.9375 "/></g></g></g><g fill="#000000" fill-opacity="1"><g transform="translate(387.903941, 198.877165)"><g/></g></g><g fill="#000000" fill-opacity="1"><g transform="translate(394.393632, 198.877165)"><g><path d="M 5.015625 -10.921875 L 6.984375 -10.921875 C 7.910156 -10.921875 8.597656 -11.15625 9.046875 -11.625 C 9.503906 -12.09375 9.734375 -12.710938 9.734375 -13.484375 C 9.734375 -14.234375 9.507812 -14.816406 9.0625 -15.234375 C 8.613281 -15.648438 8 -15.859375 7.21875 -15.859375 C 6.507812 -15.859375 5.914062 -15.664062 5.4375 -15.28125 C 4.96875 -14.894531 4.734375 -14.390625 4.734375 -13.765625 L 1.046875 -13.765625 C 1.046875 -14.734375 1.304688 -15.601562 1.828125 -16.375 C 2.347656 -17.144531 3.078125 -17.742188 4.015625 -18.171875 C 4.960938 -18.609375 6 -18.828125 7.125 -18.828125 C 9.09375 -18.828125 10.632812 -18.359375 11.75 -17.421875 C 12.863281 -16.484375 13.421875 -15.1875 13.421875 -13.53125 C 13.421875 -12.6875 13.160156 -11.90625 12.640625 -11.1875 C 12.117188 -10.46875 11.4375 -9.921875 10.59375 -9.546875 C 11.644531 -9.171875 12.425781 -8.609375 12.9375 -7.859375 C 13.457031 -7.109375 13.71875 -6.222656 13.71875 -5.203125 C 13.71875 -3.554688 13.113281 -2.234375 11.90625 -1.234375 C 10.707031 -0.242188 9.113281 0.25 7.125 0.25 C 5.269531 0.25 3.753906 -0.234375 2.578125 -1.203125 C 1.398438 -2.179688 0.8125 -3.476562 0.8125 -5.09375 L 4.5 -5.09375 C 4.5 -4.394531 4.757812 -3.820312 5.28125 -3.375 C 5.8125 -2.9375 6.457031 -2.71875 7.21875 -2.71875 C 8.09375 -2.71875 8.78125 -2.945312 9.28125 -3.40625 C 9.78125 -3.875 10.03125 -4.488281 10.03125 -5.25 C 10.03125 -7.101562 9.007812 -8.03125 6.96875 -8.03125 L 5.015625 -8.03125 Z M 5.015625 -10.921875 "/></g></g></g><g fill="#000000" fill-opacity="1"><g transform="translate(409.360631, 198.877165)"><g/></g></g></svg>